<?xml version="1.0" encoding="UTF-8"?>
<svg version="1.1" xmlns="http://www.w3.org/2000/svg" width="1024" height="1024">
<path d="M0 0 C337.92 0 675.84 0 1024 0 C1024 337.92 1024 675.84 1024 1024 C686.08 1024 348.16 1024 0 1024 C0 686.08 0 348.16 0 0 Z " fill="#FDFEFD" transform="translate(0,0)"/>
<path d="M0 0 C337.92 0 675.84 0 1024 0 C1024 337.92 1024 675.84 1024 1024 C686.08 1024 348.16 1024 0 1024 C0 686.08 0 348.16 0 0 Z M462 28.3125 C461.29435913 28.37126312 460.58871826 28.43002625 459.86169434 28.49057007 C452.24926104 29.15072597 445.04612031 30.33735328 437.67089844 32.32446289 C433.98858847 33.25581131 430.40360525 33.6740805 426.625 34.0625 C421.76749594 34.56549598 417.6009528 35.39123147 413 37 C410.23549739 37.55213367 407.46746203 37.99524007 404.68359375 38.4375 C401.94204209 39.01214838 399.58986967 39.94838095 397 41 C394.67172805 41.52826338 392.34031823 41.93268441 389.98828125 42.33984375 C386.48214768 43.11440136 383.09328176 44.1497829 379.66088867 45.19946289 C377.13708997 45.95875603 374.60589222 46.66894256 372.0625 47.359375 C361.1243399 50.34932438 350.59427198 53.84243324 340.10351562 58.14306641 C338.01844466 58.99248599 335.92552166 59.81825872 333.828125 60.63671875 C328.04690634 62.89914872 322.35673824 65.20041022 316.85546875 68.0859375 C314.77686973 69.10992102 312.66583059 69.92662639 310.5 70.75 C289.27891305 79.13601023 268.9018099 91.32068674 250 104 C248.59621094 104.89525391 248.59621094 104.89525391 247.1640625 105.80859375 C246.32617188 106.34613281 245.48828125 106.88367188 244.625 107.4375 C243.91601562 107.88996094 243.20703125 108.34242187 242.4765625 108.80859375 C241.98929688 109.20175781 241.50203125 109.59492187 241 110 C241 110.66 241 111.32 241 112 C240.13503906 112.2371875 239.27007812 112.474375 238.37890625 112.71875 C234.59718421 114.15274402 232.09317087 115.97865488 228.9375 118.5 C227.79062817 119.40788515 226.64348511 120.31542777 225.49609375 121.22265625 C224.91585449 121.68559082 224.33561523 122.14852539 223.73779297 122.62548828 C221.55208236 124.35428159 219.33213632 126.03497032 217.10986328 127.71630859 C211.07000959 132.29795072 205.2278327 137.07798553 199.48120117 142.02148438 C197.28495607 143.90659105 195.07688357 145.77535637 192.85253906 147.62719727 C184.21245127 154.86057357 176.1341279 162.55462138 168.19360352 170.5456543 C166.17882165 172.57122482 164.15346725 174.58578384 162.12695312 176.59960938 C154.95326676 183.76600869 148.28707846 191.03737766 142 199 C141.00570989 200.16452951 140.00297424 201.32195449 138.98828125 202.46875 C117.40449052 224.85869464 117.40449052 224.85869464 105 251 C104.34 251 103.68 251 103 251 C101.35779345 253.40995294 99.84973401 255.80314791 98.375 258.3125 C97.95476562 259.00279297 97.53453125 259.69308594 97.1015625 260.40429688 C94.61349131 264.40486747 94.61349131 264.40486747 94 269 C93.34 269 92.68 269 92 269 C89.99536486 272.66414994 87.99726172 276.33182651 86 280 C85.37738281 281.13824219 84.75476563 282.27648437 84.11328125 283.44921875 C83.49839844 284.57972656 82.88351563 285.71023438 82.25 286.875 C81.67765625 287.92429687 81.1053125 288.97359375 80.515625 290.0546875 C79.16904366 292.67149763 78.08179012 295.26773167 77 298 C75.99529168 300.02889853 74.97245569 302.0488628 73.9375 304.0625 C67.19859584 317.40498897 61.12051416 330.93671897 56.33984375 345.10546875 C55.12278303 348.70715533 53.73551211 352.22413913 52.3125 355.75 C49.57441898 362.76302042 47 370.40744654 47 378 C46.34 378 45.68 378 45 378 C44.89042969 378.61746094 44.78085937 379.23492187 44.66796875 379.87109375 C43.87182737 384.12365379 43.00469482 388.22881151 41.5625 392.3125 C37.76379036 403.19199436 36.14381181 414.64610171 34.4375 426 C34.22766436 427.37246484 34.01737912 428.74486101 33.80664062 430.1171875 C33.39514143 432.80031612 32.98773776 435.48401863 32.58325195 438.16821289 C32.20540351 440.65056171 31.81905728 443.13163796 31.42260742 445.61108398 C30.49252916 451.44352862 29.73400964 457.16385074 29.4375 463.0625 C29.1003794 469.61915165 29.1003794 469.61915165 28.50439453 471.88037109 C27.92187695 474.32829831 27.78641568 476.61440167 27.68359375 479.12890625 C27.62051025 480.6598291 27.62051025 480.6598291 27.55615234 482.22167969 C27.51699707 483.32415039 27.4778418 484.42662109 27.4375 485.5625 C27.3748999 487.2954834 27.3748999 487.2954834 27.31103516 489.06347656 C26.89212813 501.71275889 26.83479171 514.34574801 27 527 C27.01256836 528.19109375 27.02513672 529.3821875 27.03808594 530.609375 C27.31469335 551.83476012 27.95138687 574.50192218 34 595 C34.68215834 598.80038562 35.23553763 602.6199323 35.8125 606.4375 C37.17441434 615.03523404 39.00422587 623.10586315 41.80078125 631.3359375 C42.97139998 634.91261622 43.8510779 638.45730873 44.6875 642.125 C51.31323646 669.99792894 62.27458129 697.92661182 75.1875 723.4375 C75.54263672 724.14326172 75.89777344 724.84902344 76.26367188 725.57617188 C77.1741107 727.38495641 78.08688074 729.19256714 79 731 C79.33 731.66 79.66 732.32 80 733 C80.66 733 81.32 733 82 733 C82.495 735.97 82.495 735.97 83 739 C83.66 739 84.32 739 85 739 C85.39832031 740.28777344 85.39832031 740.28777344 85.8046875 741.6015625 C87.01023801 745.02910808 88.47244386 748.14173798 90.125 751.375 C90.66382813 752.43460938 91.20265625 753.49421875 91.7578125 754.5859375 C92.16773437 755.38257813 92.57765625 756.17921875 93 757 C93.66 757 94.32 757 95 757 C95.24105469 757.67804687 95.48210937 758.35609375 95.73046875 759.0546875 C97.27083885 762.62834613 99.23658508 765.84659577 101.3125 769.125 C101.74908936 769.81658203 102.18567871 770.50816406 102.63549805 771.22070312 C111.54198758 785.2168378 120.94484652 798.58065673 131.59423828 811.30615234 C133.52213195 813.62913363 135.38550427 816.00099851 137.25 818.375 C140.54207864 822.50907779 144.04280837 826.41416644 147.6105957 830.31103516 C149.83822381 832.81794186 151.92206834 835.38833528 154 838.01953125 C158.94914062 844.09498232 164.3513355 849.62123774 169.9206543 855.12646484 C171.5694957 856.75691768 173.21006101 858.3953638 174.84960938 860.03515625 C180.39558388 865.56274377 186.02027416 870.93940019 192 876 C193.118228 876.97276353 194.23544339 877.94669251 195.3515625 878.921875 C206.37913401 888.47521679 217.74715582 897.43948931 229.5625 906 C230.3246582 906.55228271 231.08681641 907.10456543 231.87207031 907.67358398 C237.93497748 912.68859937 237.93497748 912.68859937 245 915 C245 915.66 245 916.32 245 917 C247.42875336 918.67541795 249.85190565 920.22856569 252.375 921.75 C253.47884033 922.42542847 253.47884033 922.42542847 254.60498047 923.11450195 C256.07394194 924.01191384 257.54478029 924.90626147 259.01757812 925.79736328 C260.61801983 926.76827163 262.20899362 927.75477675 263.796875 928.74609375 C268.57672251 931.70542887 273.48536599 934.34093488 278.5 936.875 C279.11246582 937.18590576 279.72493164 937.49681152 280.35595703 937.81713867 C283.52485665 939.4745684 283.52485665 939.4745684 287 940 C287 940.66 287 941.32 287 942 C287.70125 942.31453125 288.4025 942.6290625 289.125 942.953125 C290.07375 943.38109375 291.0225 943.8090625 292 944.25 C292.928125 944.66765625 293.85625 945.0853125 294.8125 945.515625 C297.84950656 946.92991727 300.83939597 948.41473505 303.83154297 949.92041016 C307.71633868 951.85449782 311.64010962 953.70617319 315.5625 955.5625 C316.37396484 955.94857422 317.18542969 956.33464844 318.02148438 956.73242188 C326.88700676 961.31064184 326.88700676 961.31064184 336.4375 963.6875 C337.613125 963.790625 338.78875 963.89375 340 964 C340 964.66 340 965.32 340 966 C353.98077301 971.20282405 368.04370707 975.66644472 382.43212891 979.58911133 C383.46772949 979.87294678 384.50333008 980.15678223 385.5703125 980.44921875 C386.49602051 980.70018311 387.42172852 980.95114746 388.37548828 981.2097168 C391 982 391 982 393.58203125 983.03662109 C395.78016292 983.91241144 397.80548744 984.49173237 400.1171875 984.96484375 C401.2626001 985.20279663 401.2626001 985.20279663 402.43115234 985.44555664 C403.23762207 985.60789795 404.0440918 985.77023926 404.875 985.9375 C406.144646 986.19744751 406.144646 986.19744751 407.43994141 986.46264648 C409.15879511 986.81389895 410.87803158 987.16328378 412.59765625 987.51074219 C414.6821664 987.93527047 416.7633 988.37631402 418.84375 988.8203125 C437.38362201 992.71696702 456.11193604 994.74643677 475 996 C476.3001001 996.08894531 476.3001001 996.08894531 477.62646484 996.1796875 C493.00334234 997.1723159 508.41061263 997.1028477 523.8125 997.125 C524.8732373 997.12767883 525.93397461 997.13035767 527.02685547 997.13311768 C530.1077814 997.13901504 533.18860448 997.13722109 536.26953125 997.1328125 C537.18656326 997.13478638 538.10359528 997.13676025 539.04841614 997.13879395 C547.42587723 997.10938377 555.72680246 996.46469392 564 995.125 C565.07894531 994.95226562 566.15789063 994.77953125 567.26953125 994.6015625 C568.50058594 994.40304687 569.73164062 994.20453125 571 994 C572.56625886 993.75686113 574.13267515 993.51473499 575.69921875 993.2734375 C586.57893654 991.59863527 586.57893654 991.59863527 597.38671875 989.51953125 C600.17449964 988.96530874 602.97350724 988.50708483 605.77807617 988.046875 C615.32800019 986.45756034 624.58000921 984.12225958 633.91113281 981.5625 C636.6577788 980.82287022 639.42072634 980.15982678 642.1875 979.5 C649.56290098 977.67686717 656.77024628 975.32275066 664 973 C664.79921875 972.75507812 665.5984375 972.51015625 666.421875 972.2578125 C672.25313367 970.4270685 677.8550043 968.04121511 683.4909668 965.69018555 C687.8835906 963.85948436 692.29341336 962.10871999 696.75 960.4375 C702.40237068 958.29472472 707.85994168 955.82437974 713.3203125 953.234375 C716 952 716 952 719 951 C719 950.34 719 949.68 719 949 C719.64582031 948.93296875 720.29164063 948.8659375 720.95703125 948.796875 C725.28560796 947.66333245 728.83029973 945.4776451 732.6875 943.25 C734.3050616 942.3316968 735.92354429 941.41501406 737.54296875 940.5 C738.31560059 940.06300781 739.08823242 939.62601563 739.88427734 939.17578125 C742.38545235 937.78579061 744.92541056 936.49828579 747.5 935.25 C752.52081167 932.79519089 757.24849808 929.93655054 762 927 C763.74413015 925.92512317 765.48857898 924.85076547 767.2331543 923.77661133 C768.92759673 922.73213051 770.62009294 921.68449435 772.3125 920.63671875 C775 919 775 919 777 918 C777 917.34 777 916.68 777 916 C777.721875 915.731875 778.44375 915.46375 779.1875 915.1875 C781.99766383 914.00098638 784.48416557 912.72514361 787 911 C787 910.34 787 909.68 787 909 C788.01126953 908.66935547 788.01126953 908.66935547 789.04296875 908.33203125 C792.88839718 906.59981052 795.97644148 904.24481852 799.3125 901.6875 C800.35494873 900.89605591 800.35494873 900.89605591 801.41845703 900.08862305 C812.66493156 891.49633674 823.56734341 882.56640712 834 873 C835.3709336 871.78705503 836.74576761 870.57850008 838.125 869.375 C838.75664063 868.82199219 839.38828125 868.26898437 840.0390625 867.69921875 C841.44197043 866.48355152 842.85457771 865.27904183 844.2734375 864.08203125 C845.00820313 863.45683594 845.74296875 862.83164062 846.5 862.1875 C847.1703125 861.62417969 847.840625 861.06085937 848.53125 860.48046875 C850.23476384 859.11093455 850.23476384 859.11093455 850 857 C850.58136719 856.74476563 851.16273438 856.48953125 851.76171875 856.2265625 C857.90878153 852.85801501 862.57145719 846.44980436 867.09375 841.1875 C869.30945648 838.64488601 871.59098592 836.16889802 873.875 833.6875 C878.79594096 828.28484042 883.42417375 822.69552272 888 817 C888.91190989 815.89122702 889.82471134 814.78318686 890.73828125 813.67578125 C899.06438406 803.51480549 906.6184091 792.86170451 914 782 C914.63719971 781.06357666 915.27439941 780.12715332 915.9309082 779.16235352 C920.75042775 772.01237533 925.27710631 764.72068961 929.6875 757.3125 C930.32494141 756.24966797 930.96238281 755.18683594 931.61914062 754.09179688 C933.42618459 751.06886781 935.21824334 748.03789253 937 745 C937.51771973 744.12005371 938.03543945 743.24010742 938.56884766 742.33349609 C939.02694824 741.53637207 939.48504883 740.73924805 939.95703125 739.91796875 C940.35510986 739.22856201 940.75318848 738.53915527 941.16333008 737.82885742 C942.20800754 735.88051329 942.20800754 735.88051329 942 733 C942.66 733 943.32 733 944 733 C944.99 729.7 945.98 726.4 947 723 C947.66 723 948.32 723 949 723 C949.29132812 722.28457031 949.58265625 721.56914063 949.8828125 720.83203125 C952.13225283 715.36405208 954.4638975 709.96658376 957 704.625 C959.63676509 698.99314021 961.75880943 693.28300012 963.7265625 687.38671875 C964.68471198 684.83851139 965.68002407 682.60953085 966.9296875 680.21484375 C969.29675382 675.59413996 970.90545999 670.80657169 972.5 665.875 C972.80478271 664.94196045 973.10956543 664.0089209 973.42358398 663.04760742 C977.59166419 650.19685974 980.92450578 637.32409614 983.89477539 624.14770508 C985.97120322 614.95111486 985.97120322 614.95111486 987.1171875 611.0625 C987.94712875 608.18341176 988.52897321 605.39403423 989 602.4375 C989.165 601.40753906 989.33 600.37757813 989.5 599.31640625 C990.18760342 594.75566167 990.82361831 590.18841363 991.4375 585.6171875 C991.86488293 582.86887784 992.37676164 580.20678841 992.9609375 577.4921875 C999.8358356 543.54498656 997.74524953 507.62930435 995.1875 473.375 C995.10490936 472.25710083 995.02231873 471.13920166 994.93722534 469.98742676 C993.92618455 456.58110729 992.50875642 443.33162021 990.33207703 430.06338501 C989.8266255 426.92272483 989.38187678 423.77485402 988.9375 420.625 C988.52270093 417.69375321 988.02780854 415.08187705 987.07495117 412.27636719 C985.94325534 408.82704671 985.08965561 405.38850764 984.2734375 401.8515625 C984.12089508 401.19417084 983.96835266 400.53677917 983.81118774 399.85946655 C983.32975747 397.78192474 982.85231519 395.70349068 982.375 393.625 C982.04713931 392.20697011 981.71901683 390.78900073 981.390625 389.37109375 C980.59072319 385.91475654 979.79439261 382.45760811 979 379 C978.34 379 977.68 379 977 379 C976.92523437 378.35417969 976.85046875 377.70835937 976.7734375 377.04296875 C975.80492988 370.10199749 974.10704009 363.61317639 972 356.9375 C971.73880371 356.10436279 971.47760742 355.27122559 971.20849609 354.4128418 C970.06162243 350.86436094 969.0899516 348.1349274 967 345 C966.3328057 342.95076038 965.71320302 340.88579411 965.125 338.8125 C963.7643245 334.25675685 962.26707107 330.15209186 960.0078125 325.98046875 C958.38622152 322.79385392 957.18286465 319.44682052 955.9296875 316.1015625 C955.0801122 313.83971925 955.0801122 313.83971925 953 312 C952.28072705 309.68234271 951.6090107 307.34904126 951 305 C950.34 305 949.68 305 949 305 C948.7525 303.845 948.505 302.69 948.25 301.5 C947.12593652 296.93858296 945.21371309 293.13226443 943 289 C942.34 289 941.68 289 941 289 C940.86271484 287.97326172 940.86271484 287.97326172 940.72265625 286.92578125 C939.82696359 283.29943637 938.24973718 280.44952692 936.4375 277.1875 C936.10814453 276.59001953 935.77878906 275.99253906 935.43945312 275.37695312 C934.63226733 273.91466002 933.81695083 272.4568601 933 271 C932.34 271 931.68 271 931 271 C930.75507812 269.98292969 930.51015625 268.96585938 930.2578125 267.91796875 C929.12060354 263.95367026 927.177154 260.70642721 924.875 257.3125 C924.47539063 256.70873535 924.07578125 256.1049707 923.6640625 255.48291016 C922.84334348 254.24501395 922.01881176 253.00963683 921.19042969 251.77685547 C920.09551238 250.14256339 919.01947754 248.49566231 917.9453125 246.84765625 C913.93917963 240.72583473 909.70932852 234.82322654 905.28125 229 C903.01465696 226.0192749 900.78912246 223.01064445 898.5625 220 C892.36515352 211.73687136 885.71390359 203.86224958 878.85546875 196.140625 C877.49554996 194.57170816 876.16932048 192.97341983 874.86328125 191.359375 C868.74460088 183.86711332 862.1526917 176.96578619 855.3125 170.125 C854.42159668 169.23337158 853.53069336 168.34174316 852.61279297 167.4230957 C847.56364706 162.41575203 842.39384918 157.63118328 837 153 C835.39231627 151.54554483 833.78760285 150.08779105 832.1875 148.625 C823.82353764 141.08978391 814.99929785 134.16841029 806.04296875 127.359375 C803.88029077 125.6825361 801.8076907 123.98603942 799.73828125 122.203125 C797.32604526 119.79104622 797.32604526 119.79104622 795 120 C795 119.34 795 118.68 795 118 C791.06171464 115.68336156 787.30764815 113.56641751 783 112 C783 111.34 783 110.68 783 110 C780.82248821 108.40222476 780.82248821 108.40222476 778.125 106.875 C777.22007812 106.33617188 776.31515625 105.79734375 775.3828125 105.2421875 C773.15227978 103.8459107 773.15227978 103.8459107 771 104 C771 103.34 771 102.68 771 102 C770.40832031 101.67386719 769.81664062 101.34773438 769.20703125 101.01171875 C765.78864136 99.1212878 762.38755883 97.23913204 759.0625 95.1875 C757.1077807 93.83367852 757.1077807 93.83367852 755 94 C755 93.34 755 92.68 755 92 C754.20980469 91.61070313 753.41960938 91.22140625 752.60546875 90.8203125 C745.45176505 87.27207546 738.36480366 83.62090309 731.3125 79.875 C724.63671538 76.33781579 717.92820485 73.01887296 711 70 C709.04059567 69.10651163 707.0822664 68.21066204 705.125 67.3125 C703.42115987 66.53178519 701.71298606 65.76043774 700 65 C699.15179687 64.62230469 698.30359375 64.24460938 697.4296875 63.85546875 C694.80048694 62.77859592 694.80048694 62.77859592 691 63 C691 62.34 691 61.68 691 61 C689.35477193 60.39418705 687.70877676 59.79045733 686.0625 59.1875 C685.14597656 58.85105469 684.22945312 58.51460937 683.28515625 58.16796875 C680.04839869 57.01720714 676.79731165 55.92515047 673.53637695 54.84545898 C670.76024248 53.92008083 667.99141775 52.97454564 665.22265625 52.02734375 C663.16929918 51.3306456 661.11591334 50.63403228 659.0625 49.9375 C658.04220703 49.58623047 657.02191406 49.23496094 655.97070312 48.87304688 C650.45911961 47.01240381 645.08443789 45.53814446 639.36401367 44.49609375 C636.21987936 43.83628988 633.25771864 42.81612826 630.22851562 41.75830078 C626.45132604 40.47303009 622.60695354 39.45322152 618.75 38.4375 C617.92153564 38.21916504 617.09307129 38.00083008 616.23950195 37.77587891 C610.55712369 36.31518413 604.91616592 35.24066193 599.09765625 34.4609375 C595.72848344 33.95959779 592.44738185 33.24985602 589.125 32.5 C564.42330169 27.11004609 538.92777969 26.61821398 513.75 26.6875 C512.44337402 26.68865814 511.13674805 26.68981628 509.79052734 26.69100952 C493.82328256 26.71892343 477.9146654 26.94870414 462 28.3125 Z " fill="#60442E" transform="translate(0,0)"/>
<path d="M0 0 C0.73605469 0.00451172 1.47210938 0.00902344 2.23046875 0.01367188 C4.02868158 0.02534858 5.82685197 0.04327989 7.625 0.0625 C7.74617187 1.02929688 7.86734375 1.99609375 7.9921875 2.9921875 C8.94809994 10.41889187 10.03840063 17.73936428 11.625 25.0625 C9.96029663 25.23555664 9.96029663 25.23555664 8.26196289 25.41210938 C-3.51655492 26.64139213 -15.28958209 27.91597789 -27.05786133 29.23974609 C-28.99353464 29.45669905 -30.92941188 29.67183941 -32.86547852 29.88525391 C-35.72460546 30.20056889 -38.58304592 30.5215681 -41.44140625 30.84375 C-42.29263565 30.93652222 -43.14386505 31.02929443 -44.02088928 31.12487793 C-49.13171744 31.70845175 -54.13354279 32.54521448 -59.16822815 33.60185242 C-62.34916984 34.26585087 -65.55029749 34.80932591 -68.75 35.375 C-75.26473869 36.56798559 -81.69629573 38.03445895 -88.125 39.625 C-89.41156494 39.93981323 -89.41156494 39.93981323 -90.72412109 40.26098633 C-91.53187988 40.4648999 -92.33963867 40.66881348 -93.171875 40.87890625 C-93.88698242 41.05881104 -94.60208984 41.23871582 -95.33886719 41.42407227 C-97.42630426 42.01660603 -97.42630426 42.01660603 -99.43847656 43.11303711 C-101.375 44.0625 -101.375 44.0625 -104.5625 44.4375 C-109.2981006 45.21382797 -113.08741656 46.97771172 -117.375 49.0625 C-118.40625 49.536875 -119.4375 50.01125 -120.5 50.5 C-124.03435696 52.42084617 -127.14191216 54.670015 -130.375 57.0625 C-129.81451652 60.53002445 -128.8432274 61.94385055 -126.0625 64.0625 C-121.82440314 67.08319022 -117.46084436 68.62934794 -112.5 70.10546875 C-109.375 71.0625 -109.375 71.0625 -105.75390625 72.48828125 C-100.4047949 74.52195882 -94.87610884 75.76059519 -89.3125 77.0625 C-87.7665918 77.43375 -87.7665918 77.43375 -86.18945312 77.8125 C-72.40370578 81.08225107 -58.68595876 83.55832786 -44.625 85.1875 C-42.47380493 85.43998542 -40.32285648 85.69422942 -38.17230225 85.95211792 C-36.2536777 86.18177993 -34.33437613 86.40576535 -32.41503906 86.62939453 C-29.375 87.0625 -29.375 87.0625 -26.375 88.0625 C-23.85139072 88.24296241 -21.33897536 88.38594053 -18.8125 88.5 C-14.30247402 88.73623707 -9.96867621 89.00783016 -5.5625 90.0625 C-1.04004002 91.08561266 3.46660997 91.38710949 8.08447266 91.61669922 C8.91572474 91.65880964 9.74697681 91.70092007 10.60341835 91.74430656 C20.55410348 92.20649866 30.50161362 92.20713214 40.4609375 92.1953125 C42.51665254 92.19598937 44.5723675 92.19696255 46.62808228 92.19821167 C50.9123817 92.19967396 55.19666008 92.19758414 59.48095703 92.19287109 C64.88068578 92.18721015 70.28036486 92.1905344 75.68009186 92.19630909 C125.97720984 93.66779057 125.97720984 93.66779057 175.55566406 87.52416992 C178.72034124 86.8181288 181.90158406 86.51383756 185.125 86.1875 C235.23389633 81.99141194 235.23389633 81.99141194 279.625 61.0625 C280.38492377 58.9858379 280.38492377 58.9858379 280.625 57.0625 C279.3875 56.381875 279.3875 56.381875 278.125 55.6875 C277.3 55.15125 276.475 54.615 275.625 54.0625 C275.625 53.4025 275.625 52.7425 275.625 52.0625 C274.76777344 51.7840625 273.91054688 51.505625 273.02734375 51.21875 C268.60656413 49.7163955 264.28366277 47.99516112 259.94140625 46.28125 C256.53389691 45.02902042 253.12414566 44.02751954 249.625 43.0625 C248.33022392 42.68139986 247.03597188 42.29851586 245.7421875 41.9140625 C236.35703574 39.18004992 226.98042845 37.03422363 217.35498047 35.31884766 C216.50564941 35.16722168 215.65631836 35.0155957 214.78125 34.859375 C213.64913086 34.66359863 213.64913086 34.66359863 212.49414062 34.46386719 C210.625 34.0625 210.625 34.0625 208.625 33.0625 C205.93683111 32.72988068 203.25819637 32.44365957 200.5625 32.1875 C194.97393644 31.63432548 189.39495899 31.04867961 183.82421875 30.3359375 C170.99115224 28.69647545 158.19669246 27.5027071 145.28173828 26.70898438 C139.67335705 26.36241217 134.18694289 25.87595895 128.625 25.0625 C125.31517403 24.81447324 122.00288258 24.65379341 118.6875 24.5 C117.81287109 24.45681641 116.93824219 24.41363281 116.03710938 24.36914062 C113.89988005 24.26403099 111.76245762 24.16286015 109.625 24.0625 C110.69335263 13.8333306 117.19586956 7.77214258 124.625 1.0625 C127.75568661 -0.50284331 131.0806789 -0.09746388 134.515625 -0.08203125 C135.31510559 -0.07967972 136.11458618 -0.07732819 136.93829346 -0.0749054 C145.27650931 -0.00295788 153.56632391 0.52183562 161.87646484 1.17944336 C164.3869429 1.37593475 166.8982893 1.55467474 169.41015625 1.73242188 C177.94621419 2.37034289 186.11354148 3.39469838 194.46875 5.35083008 C199.3546517 6.45250114 204.29124831 7.07103121 209.25 7.75 C226.23931334 10.20164195 242.91550584 14.18628103 259.625 18.0625 C259.625 18.7225 259.625 19.3825 259.625 20.0625 C260.5325 20.124375 261.44 20.18625 262.375 20.25 C268.15036547 21.07003161 273.34954339 23.68642303 278.625 26.0625 C279.33914063 26.371875 280.05328125 26.68125 280.7890625 27 C291.62700438 31.99526539 301.51054095 39.69895455 306.79797363 50.57250977 C308.51310433 55.73638225 308.1061644 61.14852834 308.015625 66.53125 C308.00996521 67.80730103 308.00430542 69.08335205 307.99847412 70.39807129 C307.97995798 73.76532658 307.94412089 77.13146591 307.8996582 80.49841309 C307.85849431 83.94415728 307.84041842 87.39001748 307.8203125 90.8359375 C307.77633118 97.57842944 307.70948218 104.3204004 307.625 111.0625 C308.21536545 110.85944244 308.8057309 110.65638489 309.41398621 110.44717407 C320.57022703 106.65949773 331.03348001 105.65228831 342.8125 105.6875 C343.496539 105.68804382 344.180578 105.68858765 344.88534546 105.68914795 C364.0183597 105.75912255 378.07824654 109.32125967 392.3046875 122.72265625 C399.54324598 130.02214536 403.52629874 137.23253757 406.625 147.0625 C406.99238281 148.2071875 407.35976563 149.351875 407.73828125 150.53125 C409.26825821 156.89792834 409.0139405 163.49046515 409 170 C409.00217529 171.02989548 409.00217529 171.02989548 409.00439453 172.08059692 C409.0018832 182.82767187 408.03508594 192.81701859 404.625 203.0625 C403.965 203.0625 403.305 203.0625 402.625 203.0625 C402.4703125 204.856875 402.4703125 204.856875 402.3125 206.6875 C401.82290384 210.65322886 400.57519036 213.55215736 398.625 217.0625 C398.34269531 217.79597656 398.06039062 218.52945313 397.76953125 219.28515625 C390.21410093 237.61932335 377.43527862 254.04879292 363.625 268.0625 C362.83101807 268.89914185 362.83101807 268.89914185 362.02099609 269.75268555 C357.66519546 274.26757085 352.98446442 277.99650824 347.875 281.625 C347.07787598 282.1936377 346.28075195 282.76227539 345.45947266 283.34814453 C336.58550913 289.60226177 327.42344998 294.2958826 317.45654297 298.52880859 C314.1804083 299.92036063 311.02710382 301.38086435 307.90063477 303.08447266 C303.73297817 305.1763958 299.91765716 305.89691499 295.3203125 306.421875 C293.75516347 306.6388365 292.19071884 306.86092956 290.62695312 307.08764648 C289.42824585 307.26129227 289.42824585 307.26129227 288.20532227 307.43844604 C274.72178748 308.93287548 274.72178748 308.93287548 263.4609375 315.51171875 C261.27185402 318.74581353 259.87912344 322.25337257 258.54199219 325.90869141 C256.90135255 329.76218524 254.3173952 332.90849417 251.75 336.1875 C251.24678223 336.84830566 250.74356445 337.50911133 250.22509766 338.18994141 C244.96680258 345.05086091 239.35447087 351.59374257 233.625 358.0625 C233.17350586 358.5771582 232.72201172 359.09181641 232.25683594 359.62207031 C227.0340254 365.56738886 221.68774691 370.98958932 215.625 376.0625 C214.60764346 376.95114656 213.59217709 377.84195952 212.578125 378.734375 C201.3769382 388.55019876 189.67606686 397.56330341 177.1875 405.6875 C176.58123779 406.08203369 175.97497559 406.47656738 175.3503418 406.88305664 C174.02560922 407.72865586 172.68204197 408.54517788 171.32502747 409.3379364 C168.49894138 411.06402117 168.49894138 411.06402117 165.6862793 413.50482178 C151.88127329 424.174153 135.12864324 422.36081351 118.60229373 422.07643938 C114.30371474 422.01327648 110.00504141 422.00800177 105.70606995 421.9961853 C97.59218068 421.96529158 89.47966332 421.88349204 81.36637408 421.78269041 C72.1184669 421.67032371 62.87048889 421.6157866 53.62206733 421.56573606 C34.62227151 421.46163663 15.62374663 421.28611913 -3.375 421.0625 C-3.705 420.0725 -4.035 419.0825 -4.375 418.0625 C-5.70195891 417.7046328 -7.03748568 417.37863975 -8.375 417.0625 C-10.69318467 415.79829743 -12.93886129 414.50262565 -15.1875 413.125 C-15.83750977 412.73111084 -16.48751953 412.33722168 -17.15722656 411.93139648 C-24.37049674 407.52049736 -31.3788356 402.80733457 -38.375 398.0625 C-39.365 397.4025 -40.355 396.7425 -41.375 396.0625 C-41.375 395.4025 -41.375 394.7425 -41.375 394.0625 C-42.035 394.0625 -42.695 394.0625 -43.375 394.0625 C-43.375 393.4025 -43.375 392.7425 -43.375 392.0625 C-43.92929687 391.98 -44.48359375 391.8975 -45.0546875 391.8125 C-48.14095255 390.81491938 -50.01834554 389.14622153 -52.5 387.0625 C-53.469375 386.24910156 -54.43875 385.43570312 -55.4375 384.59765625 C-58.9955465 381.52694856 -62.5047381 378.41035804 -65.97265625 375.23828125 C-67.52096484 373.83599201 -69.09015271 372.45625379 -70.68359375 371.10546875 C-75.79231312 366.75818762 -79.97992731 362.0824798 -84.140625 356.82421875 C-86.20827091 354.26857949 -88.37055751 351.89020272 -90.625 349.5 C-97.23695883 342.22915716 -102.78016182 334.12335254 -108.375 326.0625 C-109.00172607 325.1655542 -109.00172607 325.1655542 -109.64111328 324.25048828 C-119.69659263 309.72304586 -128.00439436 293.52163851 -134.375 277.0625 C-134.96652834 275.6807778 -135.56193799 274.30071398 -136.16015625 272.921875 C-143.98083761 254.61036299 -149.40807015 235.31231008 -152.75 215.6875 C-152.8934082 214.84799805 -153.03681641 214.00849609 -153.18457031 213.14355469 C-156.26364515 193.16328072 -156.69212487 173.08708242 -156.67658257 152.91210747 C-156.67549338 150.10069811 -156.68044274 147.28931034 -156.685188 144.47790575 C-156.69615739 137.85097576 -156.69678702 131.22410256 -156.69067383 124.59716797 C-156.68458929 117.78768534 -156.69708621 110.97840698 -156.7182439 104.16895914 C-156.73587133 98.27627717 -156.74186107 92.38366032 -156.73860615 86.49095297 C-156.73680139 82.99053928 -156.73935198 79.49027284 -156.75332069 75.98988342 C-156.7682594 72.10450144 -156.75891915 68.21938208 -156.74731445 64.33398438 C-156.75495819 63.18904007 -156.76260193 62.04409576 -156.77047729 60.86445618 C-156.71015906 51.73362636 -154.84043416 45.95042249 -148.57421875 39.171875 C-140.62443857 31.54686382 -129.43647857 22.4255458 -117.9921875 21.91015625 C-117.12851562 21.96042969 -116.26484375 22.01070313 -115.375 22.0625 C-115.375 21.4025 -115.375 20.7425 -115.375 20.0625 C-112.20972433 19.14098742 -109.04251289 18.22629013 -105.875 17.3125 C-105.00746094 17.05984375 -104.13992188 16.8071875 -103.24609375 16.546875 C-89.11800661 12.48123841 -75.07844864 9.28685144 -60.5625 7 C-59.76794403 6.87243317 -58.97338806 6.74486633 -58.15475464 6.61343384 C-44.40042024 4.40838834 -30.63642485 2.69950851 -16.77246094 1.3293457 C-14.89772279 1.12068086 -13.03281974 0.82323465 -11.17578125 0.4921875 C-7.43436592 -0.08180927 -3.77798329 -0.04440668 0 0 Z " fill="#F2DEC0" transform="translate(400.375,435.9375)"/>
<path d="M0 0 C0.73605469 0.00451172 1.47210938 0.00902344 2.23046875 0.01367188 C4.02868158 0.02534858 5.82685197 0.04327989 7.625 0.0625 C7.74617187 1.02929688 7.86734375 1.99609375 7.9921875 2.9921875 C8.94809994 10.41889187 10.03840063 17.73936428 11.625 25.0625 C9.96029663 25.23555664 9.96029663 25.23555664 8.26196289 25.41210938 C-3.51655492 26.64139213 -15.28958209 27.91597789 -27.05786133 29.23974609 C-28.99353464 29.45669905 -30.92941188 29.67183941 -32.86547852 29.88525391 C-35.72460546 30.20056889 -38.58304592 30.5215681 -41.44140625 30.84375 C-42.29263565 30.93652222 -43.14386505 31.02929443 -44.02088928 31.12487793 C-49.13171744 31.70845175 -54.13354279 32.54521448 -59.16822815 33.60185242 C-62.34916984 34.26585087 -65.55029749 34.80932591 -68.75 35.375 C-75.26473869 36.56798559 -81.69629573 38.03445895 -88.125 39.625 C-89.41156494 39.93981323 -89.41156494 39.93981323 -90.72412109 40.26098633 C-91.53187988 40.4648999 -92.33963867 40.66881348 -93.171875 40.87890625 C-93.88698242 41.05881104 -94.60208984 41.23871582 -95.33886719 41.42407227 C-97.42630426 42.01660603 -97.42630426 42.01660603 -99.43847656 43.11303711 C-101.375 44.0625 -101.375 44.0625 -104.5625 44.4375 C-109.2981006 45.21382797 -113.08741656 46.97771172 -117.375 49.0625 C-118.40625 49.536875 -119.4375 50.01125 -120.5 50.5 C-124.03435696 52.42084617 -127.14191216 54.670015 -130.375 57.0625 C-129.81451652 60.53002445 -128.8432274 61.94385055 -126.0625 64.0625 C-121.82440314 67.08319022 -117.46084436 68.62934794 -112.5 70.10546875 C-109.375 71.0625 -109.375 71.0625 -105.75390625 72.48828125 C-100.4047949 74.52195882 -94.87610884 75.76059519 -89.3125 77.0625 C-87.7665918 77.43375 -87.7665918 77.43375 -86.18945312 77.8125 C-72.40370578 81.08225107 -58.68595876 83.55832786 -44.625 85.1875 C-42.47380493 85.43998542 -40.32285648 85.69422942 -38.17230225 85.95211792 C-36.2536777 86.18177993 -34.33437613 86.40576535 -32.41503906 86.62939453 C-29.375 87.0625 -29.375 87.0625 -26.375 88.0625 C-23.85139072 88.24296241 -21.33897536 88.38594053 -18.8125 88.5 C-14.30247402 88.73623707 -9.96867621 89.00783016 -5.5625 90.0625 C-1.04004002 91.08561266 3.46660997 91.38710949 8.08447266 91.61669922 C8.91572474 91.65880964 9.74697681 91.70092007 10.60341835 91.74430656 C20.55410348 92.20649866 30.50161362 92.20713214 40.4609375 92.1953125 C42.51665254 92.19598937 44.5723675 92.19696255 46.62808228 92.19821167 C50.9123817 92.19967396 55.19666008 92.19758414 59.48095703 92.19287109 C64.88068578 92.18721015 70.28036486 92.1905344 75.68009186 92.19630909 C125.97720984 93.66779057 125.97720984 93.66779057 175.55566406 87.52416992 C178.72034124 86.8181288 181.90158406 86.51383756 185.125 86.1875 C235.23389633 81.99141194 235.23389633 81.99141194 279.625 61.0625 C280.38492377 58.9858379 280.38492377 58.9858379 280.625 57.0625 C279.3875 56.381875 279.3875 56.381875 278.125 55.6875 C277.3 55.15125 276.475 54.615 275.625 54.0625 C275.625 53.4025 275.625 52.7425 275.625 52.0625 C274.76777344 51.7840625 273.91054688 51.505625 273.02734375 51.21875 C268.60656413 49.7163955 264.28366277 47.99516112 259.94140625 46.28125 C256.53389691 45.02902042 253.12414566 44.02751954 249.625 43.0625 C248.33022392 42.68139986 247.03597188 42.29851586 245.7421875 41.9140625 C236.35703574 39.18004992 226.98042845 37.03422363 217.35498047 35.31884766 C216.50564941 35.16722168 215.65631836 35.0155957 214.78125 34.859375 C213.64913086 34.66359863 213.64913086 34.66359863 212.49414062 34.46386719 C210.625 34.0625 210.625 34.0625 208.625 33.0625 C205.93683111 32.72988068 203.25819637 32.44365957 200.5625 32.1875 C194.97393644 31.63432548 189.39495899 31.04867961 183.82421875 30.3359375 C170.99115224 28.69647545 158.19669246 27.5027071 145.28173828 26.70898438 C139.67335705 26.36241217 134.18694289 25.87595895 128.625 25.0625 C125.31517403 24.81447324 122.00288258 24.65379341 118.6875 24.5 C117.81287109 24.45681641 116.93824219 24.41363281 116.03710938 24.36914062 C113.89988005 24.26403099 111.76245762 24.16286015 109.625 24.0625 C110.69335263 13.8333306 117.19586956 7.77214258 124.625 1.0625 C127.75568661 -0.50284331 131.0806789 -0.09746388 134.515625 -0.08203125 C135.31510559 -0.07967972 136.11458618 -0.07732819 136.93829346 -0.0749054 C145.27650931 -0.00295788 153.56632391 0.52183562 161.87646484 1.17944336 C164.3869429 1.37593475 166.8982893 1.55467474 169.41015625 1.73242188 C177.94621419 2.37034289 186.11354148 3.39469838 194.46875 5.35083008 C199.3546517 6.45250114 204.29124831 7.07103121 209.25 7.75 C226.23931334 10.20164195 242.91550584 14.18628103 259.625 18.0625 C259.625 18.7225 259.625 19.3825 259.625 20.0625 C260.5325 20.124375 261.44 20.18625 262.375 20.25 C268.15036547 21.07003161 273.34954339 23.68642303 278.625 26.0625 C279.33914063 26.371875 280.05328125 26.68125 280.7890625 27 C291.62700438 31.99526539 301.51054095 39.69895455 306.79797363 50.57250977 C308.51310433 55.73638225 308.1061644 61.14852834 308.015625 66.53125 C308.00996521 67.80730103 308.00430542 69.08335205 307.99847412 70.39807129 C307.97995798 73.76532658 307.94412089 77.13146591 307.8996582 80.49841309 C307.85849431 83.94415728 307.84041842 87.39001748 307.8203125 90.8359375 C307.77633118 97.57842944 307.70948218 104.3204004 307.625 111.0625 C308.21536545 110.85944244 308.8057309 110.65638489 309.41398621 110.44717407 C320.57022703 106.65949773 331.03348001 105.65228831 342.8125 105.6875 C343.496539 105.68804382 344.180578 105.68858765 344.88534546 105.68914795 C364.0183597 105.75912255 378.07824654 109.32125967 392.3046875 122.72265625 C399.54324598 130.02214536 403.52629874 137.23253757 406.625 147.0625 C406.99238281 148.2071875 407.35976563 149.351875 407.73828125 150.53125 C409.26825821 156.89792834 409.0139405 163.49046515 409 170 C409.00217529 171.02989548 409.00217529 171.02989548 409.00439453 172.08059692 C409.0018832 182.82767187 408.03508594 192.81701859 404.625 203.0625 C403.965 203.0625 403.305 203.0625 402.625 203.0625 C402.4703125 204.856875 402.4703125 204.856875 402.3125 206.6875 C401.82290384 210.65322886 400.57519036 213.55215736 398.625 217.0625 C398.34269531 217.79597656 398.06039062 218.52945313 397.76953125 219.28515625 C390.21410093 237.61932335 377.43527862 254.04879292 363.625 268.0625 C362.83101807 268.89914185 362.83101807 268.89914185 362.02099609 269.75268555 C357.66519546 274.26757085 352.98446442 277.99650824 347.875 281.625 C347.07787598 282.1936377 346.28075195 282.76227539 345.45947266 283.34814453 C336.58550913 289.60226177 327.42344998 294.2958826 317.45654297 298.52880859 C314.1804083 299.92036063 311.02710382 301.38086435 307.90063477 303.08447266 C303.73297817 305.1763958 299.91765716 305.89691499 295.3203125 306.421875 C293.75516347 306.6388365 292.19071884 306.86092956 290.62695312 307.08764648 C289.42824585 307.26129227 289.42824585 307.26129227 288.20532227 307.43844604 C274.72178748 308.93287548 274.72178748 308.93287548 263.4609375 315.51171875 C261.27185402 318.74581353 259.87912344 322.25337257 258.54199219 325.90869141 C256.90135255 329.76218524 254.3173952 332.90849417 251.75 336.1875 C251.24678223 336.84830566 250.74356445 337.50911133 250.22509766 338.18994141 C244.96680258 345.05086091 239.35447087 351.59374257 233.625 358.0625 C233.17350586 358.5771582 232.72201172 359.09181641 232.25683594 359.62207031 C227.0340254 365.56738886 221.68774691 370.98958932 215.625 376.0625 C214.60764346 376.95114656 213.59217709 377.84195952 212.578125 378.734375 C201.3769382 388.55019876 189.67606686 397.56330341 177.1875 405.6875 C176.58123779 406.08203369 175.97497559 406.47656738 175.3503418 406.88305664 C174.02560922 407.72865586 172.68204197 408.54517788 171.32502747 409.3379364 C168.49894138 411.06402117 168.49894138 411.06402117 165.6862793 413.50482178 C151.88127329 424.174153 135.12864324 422.36081351 118.60229373 422.07643938 C114.30371474 422.01327648 110.00504141 422.00800177 105.70606995 421.9961853 C97.59218068 421.96529158 89.47966332 421.88349204 81.36637408 421.78269041 C72.1184669 421.67032371 62.87048889 421.6157866 53.62206733 421.56573606 C34.62227151 421.46163663 15.62374663 421.28611913 -3.375 421.0625 C-3.705 420.0725 -4.035 419.0825 -4.375 418.0625 C-5.70195891 417.7046328 -7.03748568 417.37863975 -8.375 417.0625 C-10.69318467 415.79829743 -12.93886129 414.50262565 -15.1875 413.125 C-15.83750977 412.73111084 -16.48751953 412.33722168 -17.15722656 411.93139648 C-24.37049674 407.52049736 -31.3788356 402.80733457 -38.375 398.0625 C-39.365 397.4025 -40.355 396.7425 -41.375 396.0625 C-41.375 395.4025 -41.375 394.7425 -41.375 394.0625 C-42.035 394.0625 -42.695 394.0625 -43.375 394.0625 C-43.375 393.4025 -43.375 392.7425 -43.375 392.0625 C-43.92929687 391.98 -44.48359375 391.8975 -45.0546875 391.8125 C-48.14095255 390.81491938 -50.01834554 389.14622153 -52.5 387.0625 C-53.469375 386.24910156 -54.43875 385.43570312 -55.4375 384.59765625 C-58.9955465 381.52694856 -62.5047381 378.41035804 -65.97265625 375.23828125 C-67.52096484 373.83599201 -69.09015271 372.45625379 -70.68359375 371.10546875 C-75.79231312 366.75818762 -79.97992731 362.0824798 -84.140625 356.82421875 C-86.20827091 354.26857949 -88.37055751 351.89020272 -90.625 349.5 C-97.23695883 342.22915716 -102.78016182 334.12335254 -108.375 326.0625 C-109.00172607 325.1655542 -109.00172607 325.1655542 -109.64111328 324.25048828 C-119.69659263 309.72304586 -128.00439436 293.52163851 -134.375 277.0625 C-134.96652834 275.6807778 -135.56193799 274.30071398 -136.16015625 272.921875 C-143.98083761 254.61036299 -149.40807015 235.31231008 -152.75 215.6875 C-152.8934082 214.84799805 -153.03681641 214.00849609 -153.18457031 213.14355469 C-156.26364515 193.16328072 -156.69212487 173.08708242 -156.67658257 152.91210747 C-156.67549338 150.10069811 -156.68044274 147.28931034 -156.685188 144.47790575 C-156.69615739 137.85097576 -156.69678702 131.22410256 -156.69067383 124.59716797 C-156.68458929 117.78768534 -156.69708621 110.97840698 -156.7182439 104.16895914 C-156.73587133 98.27627717 -156.74186107 92.38366032 -156.73860615 86.49095297 C-156.73680139 82.99053928 -156.73935198 79.49027284 -156.75332069 75.98988342 C-156.7682594 72.10450144 -156.75891915 68.21938208 -156.74731445 64.33398438 C-156.75495819 63.18904007 -156.76260193 62.04409576 -156.77047729 60.86445618 C-156.71015906 51.73362636 -154.84043416 45.95042249 -148.57421875 39.171875 C-140.62443857 31.54686382 -129.43647857 22.4255458 -117.9921875 21.91015625 C-117.12851562 21.96042969 -116.26484375 22.01070313 -115.375 22.0625 C-115.375 21.4025 -115.375 20.7425 -115.375 20.0625 C-112.20972433 19.14098742 -109.04251289 18.22629013 -105.875 17.3125 C-105.00746094 17.05984375 -104.13992188 16.8071875 -103.24609375 16.546875 C-89.11800661 12.48123841 -75.07844864 9.28685144 -60.5625 7 C-59.76794403 6.87243317 -58.97338806 6.74486633 -58.15475464 6.61343384 C-44.40042024 4.40838834 -30.63642485 2.69950851 -16.77246094 1.3293457 C-14.89772279 1.12068086 -13.03281974 0.82323465 -11.17578125 0.4921875 C-7.43436592 -0.08180927 -3.77798329 -0.04440668 0 0 Z M-131.375 90.0625 C-131.46876355 102.07842664 -131.53929335 114.09426258 -131.58224869 126.11048412 C-131.60289223 131.69350025 -131.63076991 137.27626141 -131.67675781 142.85913086 C-131.91713174 172.8335496 -131.95150799 202.04581269 -123.375 231.0625 C-122.92810374 232.62882591 -122.48150736 234.1952374 -122.03515625 235.76171875 C-118.58590662 247.68417562 -114.57370712 259.3856222 -110.375 271.0625 C-109.715 271.0625 -109.055 271.0625 -108.375 271.0625 C-108.28476562 271.73152344 -108.19453125 272.40054688 -108.1015625 273.08984375 C-107.17473128 276.88187903 -105.5212854 280.17313749 -103.75 283.625 C-103.39099609 284.33172852 -103.03199219 285.03845703 -102.66210938 285.76660156 C-87.1858252 315.94126145 -62.38456677 351.30773283 -33.375 370.0625 C-32.385 370.0625 -31.395 370.0625 -30.375 370.0625 C-30.375 370.7225 -30.375 371.3825 -30.375 372.0625 C-29.715 372.0625 -29.055 372.0625 -28.375 372.0625 C-28.375 372.7225 -28.375 373.3825 -28.375 374.0625 C-26.71509531 375.48109669 -26.71509531 375.48109669 -24.53515625 376.890625 C-23.71853516 377.44363281 -22.90191406 377.99664063 -22.06054688 378.56640625 C-21.19494141 379.14261719 -20.32933594 379.71882813 -19.4375 380.3125 C-18.19129883 381.15361328 -18.19129883 381.15361328 -16.91992188 382.01171875 C-15.24343162 383.14155576 -13.56322341 384.26589496 -11.87939453 385.38476562 C-10.21236846 386.50153333 -8.55687871 387.63572047 -6.91357422 388.78710938 C-6.13643066 389.32658203 -5.35928711 389.86605469 -4.55859375 390.421875 C-3.8720874 390.90624023 -3.18558105 391.39060547 -2.47827148 391.88964844 C-0.11656391 393.20661224 1.96386988 393.66430276 4.625 394.0625 C4.625 394.7225 4.625 395.3825 4.625 396.0625 C22.92274005 396.13257683 41.22044528 396.18548166 59.51829052 396.21793652 C68.01427381 396.23340631 76.51017373 396.25449797 85.00610352 396.28881836 C92.41103986 396.31871729 99.81591582 396.33807418 107.22091085 396.34476548 C111.1419248 396.34867692 115.062766 396.35787159 118.98372459 396.37969017 C122.67483339 396.40006319 126.36569838 396.4063322 130.05685806 396.40182304 C132.05622212 396.40304097 134.05555968 396.41917885 136.05485535 396.4357605 C137.24812439 396.43163651 138.44139343 396.42751251 139.67082214 396.42326355 C140.70599566 396.42602893 141.74116919 396.42879431 142.8077116 396.43164349 C146.08340716 396.00243586 147.99756542 395.04116911 150.625 393.0625 C150.625 392.4025 150.625 391.7425 150.625 391.0625 C151.65560547 390.69318359 151.65560547 390.69318359 152.70703125 390.31640625 C156.1184258 388.85046562 159.18489563 386.97998963 162.3125 385 C168.46015284 381.14492358 168.46015284 381.14492358 170.625 380.0625 C170.625 379.4025 170.625 378.7425 170.625 378.0625 C171.20765625 377.78849365 171.7903125 377.5144873 172.390625 377.23217773 C174.5711822 376.09067319 176.41631896 374.83310741 178.375 373.34765625 C179.0659375 372.82623047 179.756875 372.30480469 180.46875 371.76757812 C181.53609375 370.95450195 181.53609375 370.95450195 182.625 370.125 C183.3365625 369.58681641 184.048125 369.04863281 184.78125 368.49414062 C186.11048913 367.48853154 187.43873355 366.48160519 188.765625 365.47290039 C190.10777381 364.45483399 191.4760941 363.47095612 192.859375 362.50952148 C193.44203125 362.03200439 194.0246875 361.5544873 194.625 361.0625 C194.625 360.4025 194.625 359.7425 194.625 359.0625 C195.16511719 358.83820313 195.70523437 358.61390625 196.26171875 358.3828125 C199.37249501 356.64489122 201.84777791 354.352318 204.4375 351.9375 C204.97375 351.44032471 205.51 350.94314941 206.0625 350.4309082 C209.48760409 347.21883647 212.72068976 343.93040036 215.734375 340.32421875 C217.23818664 338.52523747 218.76781999 336.76872092 220.328125 335.01953125 C230.05855189 324.03371899 238.20749409 312.22367505 245.8125 299.6875 C246.19946045 299.05078369 246.5864209 298.41406738 246.98510742 297.75805664 C248.98442023 294.62666578 248.98442023 294.62666578 249.625 291.0625 C250.285 291.0625 250.945 291.0625 251.625 291.0625 C253.91545014 286.25040099 253.91545014 286.25040099 254.625 281.0625 C255.285 281.0625 255.945 281.0625 256.625 281.0625 C257.01171875 280.01191406 257.3984375 278.96132813 257.796875 277.87890625 C262.52615445 265.107111 262.52615445 265.107111 264.75 260.3125 C269.10109194 250.76526935 271.68445142 240.61254469 274.06884766 230.42773438 C274.45774248 228.77382171 274.8538449 227.12159471 275.25537109 225.47070312 C275.93813987 222.65107437 276.59603796 219.82643794 277.25 217 C277.55925415 215.73772583 277.55925415 215.73772583 277.87475586 214.44995117 C281.89706114 196.58699948 281.92171515 177.91064452 281.8203125 159.69140625 C281.81656674 157.66161745 281.8137272 155.6318268 281.81173706 153.60203552 C281.80422335 148.34647325 281.78468572 143.09102753 281.7623291 137.83551025 C281.74160096 132.43788224 281.73267865 127.04023476 281.72265625 121.64257812 C281.70142378 111.11583515 281.66744298 100.58917739 281.625 90.0625 C277.67519637 91.00747337 273.88913052 92.33134711 270.0625 93.6796875 C239.63808361 104.25666307 239.63808361 104.25666307 224.0769043 105.73706055 C220.96936873 106.14952146 217.94127721 106.80905506 214.875 107.4609375 C205.30789438 109.45998426 195.64257711 110.5318615 185.9375 111.625 C184.98969666 111.7333316 184.04189331 111.84166321 183.06536865 111.95327759 C168.48277337 113.61517333 153.92220574 115.02255248 139.265625 115.85205078 C136.66566743 116.00234339 134.06738085 116.1612277 131.46875 116.33154297 C100.64739874 118.35139818 69.97693673 118.50040547 39.11450195 117.42089844 C27.6136752 117.02571522 16.13119153 116.95800381 4.625 117.0625 C4.625 116.4025 4.625 115.7425 4.625 115.0625 C3.64144531 114.99256836 2.65789062 114.92263672 1.64453125 114.85058594 C-57.03026583 110.63566029 -57.03026583 110.63566029 -81.89453125 104.65283203 C-84.80931832 103.95913566 -87.73238847 103.30671096 -90.65625 102.65234375 C-101.29762104 100.23274803 -111.53557438 97.88809656 -121.375 93.0625 C-126.17350134 90.78754136 -126.17350134 90.78754136 -131.375 90.0625 Z " fill="#60442C" transform="translate(400.375,435.9375)"/>
<path d="M0 0 C0.33 0 0.66 0 1 0 C1 161.37 1 322.74 1 489 C-161.36 489 -323.72 489 -491 489 C-491 488.67 -491 488.34 -491 488 C-489.80246094 487.95101563 -488.60492187 487.90203125 -487.37109375 487.8515625 C-475.38368969 487.31826655 -463.68995292 486.26001199 -451.87890625 484.04296875 C-446.73633341 483.09652863 -441.5826213 482.38470253 -436.39868164 481.70727539 C-421.33831921 479.71756961 -406.73598561 476.64483604 -392 473 C-388.97360297 472.26184277 -385.94632248 471.52765817 -382.91772461 470.79858398 C-381.10859779 470.36223632 -379.30071849 469.92066998 -377.49438477 469.47290039 C-376.69444092 469.27817139 -375.89449707 469.08344238 -375.0703125 468.8828125 C-374.37695801 468.71152832 -373.68360352 468.54024414 -372.96923828 468.36376953 C-371 468 -371 468 -367 468 C-367 467.34 -367 466.68 -367 466 C-366.03344482 465.71334473 -366.03344482 465.71334473 -365.04736328 465.42089844 C-362.07178438 464.5354173 -359.09840564 463.64275047 -356.125 462.75 C-355.11179687 462.44964844 -354.09859375 462.14929688 -353.0546875 461.83984375 C-347.31624413 460.11095376 -341.75130033 458.18517884 -336.21044922 455.90136719 C-333.34411583 454.73254646 -330.43764425 453.72406099 -327.5 452.75 C-326.4996875 452.41484375 -325.499375 452.0796875 -324.46875 451.734375 C-322 451 -322 451 -320 451 C-320 450.34 -320 449.68 -320 449 C-319.18917969 448.69707031 -318.37835937 448.39414062 -317.54296875 448.08203125 C-304.61077836 443.18917691 -292.30781874 437.26996934 -280 431 C-279.26217285 430.62746094 -278.5243457 430.25492188 -277.76416016 429.87109375 C-264.72538916 423.26918439 -252.33567554 415.82767568 -240 408 C-238.93007813 407.3296875 -237.86015625 406.659375 -236.7578125 405.96875 C-232.82304128 403.49346365 -228.93361106 400.96196741 -225.08203125 398.359375 C-224.3967334 397.89748779 -223.71143555 397.43560059 -223.00537109 396.9597168 C-221.64979629 396.04378355 -220.29713688 395.12351733 -218.94775391 394.19848633 C-214.22052902 391 -214.22052902 391 -212 391 C-212 390.34 -212 389.68 -212 389 C-209.72272581 387.1732767 -207.43026096 385.45287178 -205.0625 383.75 C-192.47950803 374.50914371 -180.47969911 364.58045602 -169 354 C-168.1646875 353.25621094 -167.329375 352.51242187 -166.46875 351.74609375 C-159.54844438 345.53531385 -152.9128253 339.04899905 -146.3125 332.5 C-145.43360107 331.63407227 -144.55470215 330.76814453 -143.64916992 329.87597656 C-138.43096427 324.66512533 -133.6213869 319.28169406 -129.03344727 313.50708008 C-126.98237362 310.97826807 -124.83464444 308.57819878 -122.625 306.1875 C-103.69909964 285.33305366 -88.18255007 261.41281794 -73.52050781 237.47265625 C-72.22094202 235.35929685 -70.90771424 233.25574167 -69.5859375 231.15625 C-57.90967578 212.42465606 -48.37661826 191.91744642 -40.05078125 171.49609375 C-39 169 -39 169 -37.4375 166 C-35.63366261 162.2354698 -34.41519909 158.36764388 -33.16015625 154.390625 C-32.22983 151.67169171 -31.21227989 149.06524958 -30.11328125 146.4140625 C-27.69707675 140.43651698 -25.9090705 134.31541895 -24.125 128.125 C-23.42635505 125.7250933 -22.7271316 123.32535494 -22.02734375 120.92578125 C-21.68558105 119.75096191 -21.34381836 118.57614258 -20.99169922 117.36572266 C-20.10422069 114.35371404 -19.18952545 111.35280522 -18.25390625 108.35546875 C-15.50393473 99.52877174 -13.20748822 90.85804876 -11.6484375 81.7421875 C-10.82960446 77.01663297 -9.79698707 72.3504283 -8.74609375 67.671875 C-6.87481391 58.46243497 -5.59340645 49.21192192 -4.5625 39.875 C-4.30738658 37.61457262 -4.0521751 35.3541563 -3.796875 33.09375 C-3.66732422 31.93746094 -3.53777344 30.78117188 -3.40429688 29.58984375 C-2.72032447 23.51669749 -2.01532808 17.44598771 -1.3125 11.375 C-1.05849917 9.17449008 -0.80458398 6.97397027 -0.55078125 4.7734375 C-0.3671875 3.18229167 -0.18359375 1.59114583 0 0 Z " fill="#FEFEFD" transform="translate(1023,535)"/>
<path d="M0 0 C161.7 0 323.4 0 490 0 C490 165.33 490 330.66 490 501 C489.67 501 489.34 501 489 501 C488.95512451 500.22213135 488.91024902 499.4442627 488.86401367 498.64282227 C487.88106086 481.96445114 486.5954556 465.41027446 484.37792969 448.84179688 C484.02014138 446.15145066 483.68391466 443.45921144 483.3515625 440.765625 C481.4605899 425.99452464 478.31338905 411.50996002 475 397 C474.81824219 396.20223145 474.63648438 395.40446289 474.44921875 394.58251953 C469.51129656 373.2199842 462.88242668 352.1965371 455 331.75 C454.57460938 330.63109375 454.14921875 329.5121875 453.7109375 328.359375 C451.41556498 322.38859003 448.93028347 316.68335757 446 311 C445.3277901 309.3857325 444.67710761 307.76206542 444.0625 306.125 C442.0155306 300.90878454 439.55256048 295.98389118 437 291 C436.03017367 289.06973781 435.06483257 287.13727913 434.1003418 285.2043457 C433.40649705 283.81420792 432.71133938 282.42472468 432.01489258 281.03588867 C430.45745517 277.92943639 428.91254288 274.8193264 427.3984375 271.69140625 C424.48990223 265.71102223 421.27607436 260.12420265 417.63671875 254.55859375 C416.23410478 252.36596332 414.97081391 250.1711879 413.75 247.875 C406.07014468 233.83682291 396.52078579 220.82491453 387 208 C386.55269531 207.39671875 386.10539062 206.7934375 385.64453125 206.171875 C380.02443866 198.63230463 374.04802351 191.45855068 367.88671875 184.359375 C365.27053569 181.33638369 362.75230326 178.24318857 360.25 175.125 C357.0050457 171.12445165 353.58473667 167.47175232 349.890625 163.88671875 C348.03522279 162.03515002 346.32714427 160.11746327 344.625 158.125 C338.63490889 151.17976908 332.07593525 144.78293471 325.10546875 138.828125 C322.64272972 136.6897913 320.26512657 134.46915401 317.875 132.25 C312.59158229 127.42760074 307.05096854 123.02236878 301.39453125 118.6484375 C298.43259338 116.3545252 295.55536436 113.97342087 292.6875 111.5625 C286.08488012 106.12676434 279.06928254 101.28870496 272.04541016 96.41943359 C270.19629241 95.13621915 268.35285604 93.8454061 266.51171875 92.55078125 C255.37497369 84.75913911 243.94653951 77.51836646 232.3125 70.5 C231.43843506 69.97108154 230.56437012 69.44216309 229.66381836 68.8972168 C228.84276611 68.40519775 228.02171387 67.91317871 227.17578125 67.40625 C226.44270752 66.96603516 225.70963379 66.52582031 224.9543457 66.07226562 C222.89039539 64.86397089 222.89039539 64.86397089 220 64 C220 63.34 220 62.68 220 62 C219.2575 61.896875 218.515 61.79375 217.75 61.6875 C215 61 215 61 213.21875 59.609375 C210.52431776 57.65496289 207.87798423 56.69287345 204.75 55.5625 C199.63115721 53.65808273 194.82376812 51.55375959 190 49 C190 48.34 190 47.68 190 47 C188.948125 46.896875 187.89625 46.79375 186.8125 46.6875 C182.99173536 45.99850966 181.21597798 45.03940067 178 43 C176.73916174 42.49511888 175.46699287 42.01803929 174.1875 41.5625 C171.40002075 40.56399997 168.80908905 39.43775983 166.1875 38.0625 C156.97069527 33.35566574 146.93717229 30.72728232 137 28 C137 27.34 137 26.68 137 26 C136.195625 25.87625 135.39125 25.7525 134.5625 25.625 C131.90508329 25.15878654 129.26565006 24.67418199 126.625 24.125 C125.93664062 23.98320312 125.24828125 23.84140625 124.5390625 23.6953125 C122 23 122 23 118.2890625 21.57421875 C113.85405731 19.88057217 109.37167644 18.74964397 104.75 17.6875 C103.84725342 17.47802734 102.94450684 17.26855469 102.0144043 17.05273438 C100.04671541 16.59978903 98.07817185 16.15054402 96.10888672 15.70458984 C94.01822465 15.23076774 91.92871429 14.75183785 89.84033203 14.26806641 C60.18285067 7.4219711 30.29582572 3.57543384 0 1 C0 0.67 0 0.34 0 0 Z " fill="#FEFEFE" transform="translate(534,0)"/>
<path d="M0 0 C0.33 0 0.66 0 1 0 C1.04345047 0.55693542 1.08690094 1.11387085 1.13166809 1.68768311 C1.59400588 7.5955454 2.06643415 13.50254467 2.54418945 19.40917969 C2.72017149 21.60038822 2.89375717 23.79179081 3.06469727 25.98339844 C3.99693178 37.91381318 5.05346795 49.7512254 7.04438782 61.55828857 C7.79920111 66.11367661 8.1335858 70.38076364 8 75 C8.66 75 9.32 75 10 75 C10.23074219 76.29550781 10.46148437 77.59101562 10.69921875 78.92578125 C12.65145035 89.64933556 14.96515853 100.1630919 17.83984375 110.67578125 C18.88069948 114.49057209 19.77604004 118.32495441 20.625 122.1875 C21.70702303 127.01686834 23.20463399 131.39449589 25 136 C25.47506114 137.96358604 25.94982686 139.9272659 26.41357422 141.89355469 C27.05800306 144.20834739 27.90224627 146.35774957 28.8203125 148.578125 C31.00607701 153.96082315 32.98046497 159.40585456 34.9375 164.875 C39.11261524 176.41220954 43.56731421 187.54911817 49.32226562 198.39599609 C51.33304589 202.27406891 52.53555574 205.58777956 53 210 C53.66 210 54.32 210 55 210 C55.66 212.64 56.32 215.28 57 218 C57.66 218 58.32 218 59 218 C59.29132812 218.56807373 59.58265625 219.13614746 59.8828125 219.72143555 C65.55131487 230.74315212 71.2918508 241.56990995 78 252 C78.54785156 252.88042969 79.09570312 253.76085937 79.66015625 254.66796875 C88.38123023 268.62581055 97.98971078 281.94556814 108 295 C108.45874512 295.60054199 108.91749023 296.20108398 109.39013672 296.81982422 C124.47224209 316.50748427 141.38193486 334.45793646 158.875 352 C159.68523621 352.81425446 159.68523621 352.81425446 160.51184082 353.6449585 C166.49226518 359.64787932 172.51234275 365.53927405 179 371 C179.92683594 371.79664063 180.85367188 372.59328125 181.80859375 373.4140625 C192.5789889 382.47207684 203.60065081 391.60493424 215.62890625 398.94921875 C216.08136719 399.29597656 216.53382813 399.64273437 217 400 C217 400.66 217 401.32 217 402 C218.11761719 402.41765625 218.11761719 402.41765625 219.2578125 402.84375 C221.72755141 403.88512139 223.68023699 404.98393881 225.875 406.5 C227.03322266 407.28890625 227.03322266 407.28890625 228.21484375 408.09375 C229.13394531 408.7228125 230.05304688 409.351875 231 410 C251.25514321 423.69946492 272.46487793 436.37826249 295 446 C295 446.66 295 447.32 295 448 C297.97 448.66 300.94 449.32 304 450 C304 450.66 304 451.32 304 452 C304.8353125 452.19335938 304.8353125 452.19335938 305.6875 452.390625 C313.3308894 454.40476139 320.64092337 457.6555913 327.91015625 460.71484375 C353.20125366 471.23414975 379.7460107 479.17330626 406.60107422 484.51611328 C408.9582526 484.99157914 411.30925247 485.49060259 413.66015625 485.99609375 C431.95609769 489.87705102 450.59198977 492.95445187 469.29296875 493.78515625 C476.22797388 494.18707962 483.11159286 495.12189859 490 496 C490 496.33 490 496.66 490 497 C328.3 497 166.6 497 0 497 C0 332.99 0 168.98 0 0 Z " fill="#FEFEFE" transform="translate(0,527)"/>
<path d="M0 0 C161.04 0 322.08 0 488 0 C488 0.33 488 0.66 488 1 C487.05608398 1.10022461 486.11216797 1.20044922 485.13964844 1.30371094 C450.98047186 4.94635398 417.01579494 8.71858284 383.90039062 18.19238281 C380.55110541 19.12499523 377.18614166 19.98841607 373.8203125 20.859375 C365.83899711 22.97750495 358.0561038 25.56653063 350.25 28.25 C347.61112556 29.15628011 344.97026934 30.05642968 342.328125 30.953125 C341.1824707 31.34661133 340.03681641 31.74009766 338.85644531 32.14550781 C336 33 336 33 333 33 C333 33.66 333 34.32 333 35 C330.36 35.33 327.72 35.66 325 36 C325 36.66 325 37.32 325 38 C322.73117913 38.83919398 320.46022973 39.67151724 318.1875 40.5 C317.54490234 40.73847656 316.90230469 40.97695313 316.24023438 41.22265625 C313.35066261 42.27068746 311.09923939 43 308 43 C308 43.66 308 44.32 308 45 C307.113125 45.37125 306.22625 45.7425 305.3125 46.125 C300.43608638 48.19772612 295.67060877 50.50858116 290.890625 52.79296875 C288 54 288 54 285 54 C285 54.66 285 55.32 285 56 C284.21302734 56.25910156 284.21302734 56.25910156 283.41015625 56.5234375 C275.14330354 59.52206294 267.87080501 64.02622516 260.38427734 68.56298828 C257.93900971 70.03675905 255.4811897 71.48738734 253.01953125 72.93359375 C243.56564987 78.50839986 234.3603379 84.30971698 225.3828125 90.625 C224.25552303 91.41711471 223.12792883 92.20879597 222 93 C221.43764648 93.39574219 220.87529297 93.79148437 220.29589844 94.19921875 C216.22985197 97 216.22985197 97 214 97 C214 97.66 214 98.32 214 99 C212.03094802 100.51678536 210.05557164 101.92115392 208 103.3125 C196.4655534 111.33853382 185.67508488 120.26928344 175.3671875 129.8125 C173.31689905 131.707156 171.23809726 133.55124801 169.125 135.375 C156.37299626 146.48746041 143.96433326 158.10207691 133 171 C132.04955317 172.08844274 131.09758195 173.17555525 130.14453125 174.26171875 C108.10996292 199.41333955 88.577913 226.21130058 71.3125 254.875 C70.84384521 255.65214355 70.37519043 256.42928711 69.89233398 257.22998047 C67.0623118 262.00213435 64.50790106 266.86488921 62.07788086 271.85253906 C61 274 61 274 59.25 276.875 C58.03438592 278.94154394 57.43434995 280.65451029 57 283 C56.34 283 55.68 283 55 283 C54.74863281 283.82371094 54.49726562 284.64742188 54.23828125 285.49609375 C52.82021724 289.50872283 51.04638158 293.24013949 49.1875 297.0625 C45.74142015 304.26113387 42.73531806 311.49859743 40 319 C39.39705021 320.60462444 38.79306946 322.20886236 38.1875 323.8125 C37.5996875 325.3903125 37.5996875 325.3903125 37 327 C36.34 327 35.68 327 35 327 C34.90460937 327.77601563 34.80921875 328.55203125 34.7109375 329.3515625 C33.76937845 334.18351938 32.21127183 338.72106199 30.625 343.375 C30.32078125 344.2825 30.0165625 345.19 29.703125 346.125 C28.37085013 350.07627675 27.01317577 354.00163016 25.48828125 357.8828125 C23.432792 363.29797294 22.03847819 368.90540938 20.5625 374.5 C20.25538086 375.6554834 19.94826172 376.8109668 19.63183594 378.00146484 C18.74922302 381.33293251 17.87350424 384.66613422 17 388 C16.78134277 388.82790039 16.56268555 389.65580078 16.33740234 390.50878906 C14.10764285 398.97771444 12.25316931 407.46758324 10.7109375 416.0859375 C10.18605553 418.97567232 9.62609919 421.84658087 9.03515625 424.72265625 C4.70582504 446.2712897 2.78223293 468.12658133 1 490 C0.67 490 0.34 490 0 490 C0 328.3 0 166.6 0 0 Z " fill="#FEFEFE" transform="translate(0,0)"/>
<path d="M0 0 C3.82984619 2.5532308 4.80675188 4.13781608 5.8125 8.625 C5.51482733 13.87396135 2.09642134 17.39824563 -1.0234375 21.39453125 C-7.50666654 29.9406059 -7.90651362 40.61286478 -7 51 C-4.30260202 60.86602632 2.35403506 67.05563056 11 72 C14.60894793 73.81730806 18.27255458 75.44226162 22 77 C22.67804688 77.2990625 23.35609375 77.598125 24.0546875 77.90625 C28.90955581 79.92071818 33.77954462 80.74074119 38.97265625 81.47265625 C42 82 42 82 45.3125 82.96875 C49.50529222 84.14131054 53.6344146 84.82129299 57.9375 85.4375 C58.80157471 85.56600342 59.66564941 85.69450684 60.5559082 85.8269043 C65.28508743 86.51646218 70.014839 87.12786924 74.765625 87.6484375 C87.6784218 89.08247871 100.01030218 91.45234805 112.59375 94.6953125 C117.06500278 95.83034691 121.41084863 96.55201141 126 97 C126 97.66 126 98.32 126 99 C126.98226562 99.12955078 126.98226562 99.12955078 127.984375 99.26171875 C134.61842573 100.28306272 140.33689766 102.15991383 146.46875 104.87890625 C149.04417298 106.06752472 149.04417298 106.06752472 152 107 C152 107.66 152 108.32 152 109 C152.71414063 109.26425781 153.42828125 109.52851563 154.1640625 109.80078125 C165.00976136 114.38704785 174.90055087 122.19010783 180 133 C180 133.99 180 134.98 180 136 C180.66 136 181.32 136 182 136 C182.65256456 137.70577342 183.29673041 139.41476089 183.9375 141.125 C184.47697266 142.55199219 184.47697266 142.55199219 185.02734375 144.0078125 C188.2578304 153.94577544 188.36047137 166.08660945 185 176 C184.75507812 176.763125 184.51015625 177.52625 184.2578125 178.3125 C180.27617552 189.58793214 172.55757676 198.90587695 163 206 C160.19921875 207.24609375 160.19921875 207.24609375 158 208 C158 208.66 158 209.32 158 210 C151.42543042 212.90504237 144.71964207 215.45197388 138 218 C137.4013916 218.24298828 136.8027832 218.48597656 136.18603516 218.73632812 C130.65752955 220.93033542 125.05566774 222.24757168 119.25 223.5 C117.28109972 223.93812728 115.31234801 224.3769228 113.34375 224.81640625 C112.41175781 225.02281738 111.47976563 225.22922852 110.51953125 225.44189453 C83.63552162 231.02091808 83.63552162 231.02091808 63.15625 248.0078125 C58.64055029 255.78824105 58.60094456 266.07705273 60.65234375 274.76171875 C61.59665569 277.01915117 62.66142955 278.95140523 64 281 C64.57878906 281.886875 65.15757812 282.77375 65.75390625 283.6875 C68.00171859 286.99117408 70.17059871 290.17059871 73 293 C73.68181818 299.93181818 73.68181818 299.93181818 71.125 303.9375 C68.22322731 306.75392643 67.44966563 306.96951419 63.3125 307.25 C59.04098572 307.18098092 55.76857234 305.91939709 52 304 C51.28457031 303.68289063 50.56914062 303.36578125 49.83203125 303.0390625 C33.87797302 295.69967519 19.10397597 283.70839177 11 268 C10.4225 266.948125 9.845 265.89625 9.25 264.8125 C3.89076519 252.75422168 4.1512939 237.14650656 8.59765625 224.8359375 C11.02221888 219.93278298 14.27923257 215.97582004 18 212 C18.804375 211.13375 19.60875 210.2675 20.4375 209.375 C21.7059375 208.199375 21.7059375 208.199375 23 207 C23.60972656 206.39671875 24.21945312 205.7934375 24.84765625 205.171875 C30.9038209 199.41247341 37.54153971 195.69428421 45 192 C45.96486328 191.47019531 45.96486328 191.47019531 46.94921875 190.9296875 C49.20808431 189.90566845 51.49655418 189.25367243 53.88574219 188.60253906 C56.38671075 187.8897919 58.84994133 187.08588809 61.3203125 186.2734375 C62.26777344 185.9640625 63.21523438 185.6546875 64.19140625 185.3359375 C66.15650772 184.69224248 68.12004585 184.0437562 70.08203125 183.390625 C71.02691406 183.08382812 71.97179687 182.77703125 72.9453125 182.4609375 C73.79625488 182.18040527 74.64719727 181.89987305 75.52392578 181.61083984 C78.10816023 180.97331721 80.34909612 180.88917527 83 181 C83 180.34 83 179.68 83 179 C83.83144531 178.67386719 84.66289062 178.34773437 85.51953125 178.01171875 C86.60621094 177.57472656 87.69289063 177.13773438 88.8125 176.6875 C90.43091797 176.04361328 90.43091797 176.04361328 92.08203125 175.38671875 C95.55234128 173.77148143 95.55234128 173.77148143 98 171 C98.5156256 168.50266502 98.5156256 168.50266502 98 166 C90.11055975 155.87005406 71.56712345 154.23883715 59.6010437 152.68936157 C54.274683 152.08086669 48.9386775 151.56556435 43.6038208 151.03790283 C20.31811432 148.68876415 -2.34877782 145.75197178 -23 134 C-24.65468465 133.30412577 -26.31798423 132.62693315 -28 132 C-28 131.34 -28 130.68 -28 130 C-29.27230469 129.70029297 -29.27230469 129.70029297 -30.5703125 129.39453125 C-34.97715322 127.60268372 -37.58802112 125.0567777 -40.875 121.6875 C-41.48706299 121.06593018 -42.09912598 120.44436035 -42.72973633 119.80395508 C-56.11393184 105.80679707 -60.35219726 91.50434515 -60.1484375 72.5546875 C-59.73685987 62.69848636 -57.54605952 54.73634046 -53 46 C-52.60683594 45.21753906 -52.21367187 44.43507812 -51.80859375 43.62890625 C-48.80724742 37.91347116 -45.13358222 32.94523703 -41 28 C-40.01386719 26.81083984 -40.01386719 26.81083984 -39.0078125 25.59765625 C-30.54116546 15.78192809 -14.11469668 -2.92028207 0 0 Z " fill="#61462F" transform="translate(425,197)"/>
<path d="M0 0 C0.66 0 1.32 0 2 0 C2.0515625 0.7528125 2.103125 1.505625 2.15625 2.28125 C3.66778124 16.43467892 10.21653285 29.56228159 21 39 C31.28474649 46.76322618 42.47346585 51.31105811 55 54 C55 54.66 55 55.32 55 56 C56.57587891 56.18175781 56.57587891 56.18175781 58.18359375 56.3671875 C65.562022 57.23947934 72.77854656 58.21904176 80 60 C86.58703797 61.60966027 93.14676752 62.62228605 99.875 63.4375 C124.35360307 66.54036609 147.95245526 70.87701354 171 80 C171 80.66 171 81.32 171 82 C172.32 82 173.64 82 175 82 C175 82.66 175 83.32 175 84 C176.07507813 84.35964844 176.07507813 84.35964844 177.171875 84.7265625 C180.42346627 86.1906768 182.60451196 87.99089252 185.25 90.375 C186.12140625 91.14585937 186.9928125 91.91671875 187.890625 92.7109375 C189.94613588 94.94154745 190.64900061 96.04350515 191 99 C191.66 99 192.32 99 193 99 C197.11371347 108.86189345 199.71803005 119.5812876 195.6015625 129.890625 C192.91254025 135.76677635 189.89426916 140.69047985 185 145 C184.34 145 183.68 145 183 145 C183 145.66 183 146.32 183 147 C177.25 150 177.25 150 175 150 C175 150.66 175 151.32 175 152 C166.33874203 156.07437875 158.60522507 158.97966474 149 160 C149 160.66 149 161.32 149 162 C148.25016846 162.13051758 147.50033691 162.26103516 146.7277832 162.39550781 C143.25446289 163.00513385 139.7835364 163.62750684 136.3125 164.25 C134.54422852 164.55744141 134.54422852 164.55744141 132.74023438 164.87109375 C121.91916828 166.82777967 111.53251649 169.67590535 101.4375 174.0625 C100.30183594 174.54847656 99.16617188 175.03445313 97.99609375 175.53515625 C95.36587058 176.82111934 93.30992854 178.23481651 91 180 C90.34 180 89.68 180 89 180 C89 180.66 89 181.32 89 182 C87.85423404 183.04755745 86.6560644 184.03809717 85.4375 185 C76.986026 192.26976347 71.86950063 200.96428113 70 212 C69.5874739 218.33386223 69.75907892 224.66243705 70 231 C66.41183261 229.50493025 64.3149694 227.45521549 61.75 224.5625 C61.04359375 223.78003906 60.3371875 222.99757813 59.609375 222.19140625 C58 220 58 220 58 217 C57.34 217 56.68 217 56 217 C51.4721781 206.81240072 52.32644833 197.27800178 56.125 186.9375 C56.41375 186.298125 56.7025 185.65875 57 185 C57.66 185 58.32 185 59 185 C59.20625 184.278125 59.4125 183.55625 59.625 182.8125 C61.47528988 179.02781616 63.60240438 177.47741347 67 175 C67.66 175 68.32 175 69 175 C69 174.34 69 173.68 69 173 C77.93108582 166.22745167 88.53465857 163.13895672 99.0625 159.8125 C101.43144218 159.04967783 103.79908015 158.28290176 106.16667175 157.51589966 C107.6888419 157.02322518 109.21154812 156.53220349 110.7348175 156.04293823 C115.82099056 154.40453703 120.85662115 152.65946797 125.86425781 150.79272461 C128.55436349 149.7942366 131.27072984 148.8851687 134 148 C134 147.34 134 146.68 134 146 C135.49609375 144.5625 135.49609375 144.5625 137.4375 143 C140.15188238 140.85474956 140.15188238 140.85474956 142 138 C142.66 138 143.32 138 144 138 C145.87455418 129.09586765 145.74299675 120.3992847 142 112 C139.46341399 108.84640658 137.06261059 107.04134662 133.6875 104.8125 C132.800625 104.214375 131.91375 103.61625 131 103 C131 102.34 131 101.68 131 101 C130.35675781 100.82984375 129.71351563 100.6596875 129.05078125 100.484375 C123.88893678 99.10002869 118.77865031 97.62616595 113.6875 96 C102.03548983 92.41687011 90.57445981 90.64177883 78.484375 89.5234375 C37.60802806 85.70890549 37.60802806 85.70890549 19 77 C17.58553669 76.39069273 16.16921421 75.78565788 14.75 75.1875 C13.38875 74.5996875 13.38875 74.5996875 12 74 C12 73.34 12 72.68 12 72 C11.12472656 71.773125 10.24945313 71.54625 9.34765625 71.3125 C0.93625609 68.0146815 -5.48047139 59.42642396 -9.09765625 51.38671875 C-9.39542969 50.59910156 -9.69320313 49.81148438 -10 49 C-10.36222656 48.11441406 -10.72445313 47.22882813 -11.09765625 46.31640625 C-13.98610128 35.70043294 -13.37821907 22.62237278 -8 13 C-7.08123325 11.12602816 -6.16456313 9.25102693 -5.25 7.375 C-4.50406425 5.91458363 -3.75559211 4.45544381 -3 3 C-2.34 3 -1.68 3 -1 3 C-0.67 2.01 -0.34 1.02 0 0 Z " fill="#F1DEBF" transform="translate(396,240)"/>
<path d="M0 0 C3.60529285 3.48928096 5.36237083 7.54835815 6.9375 12.25 C7.27587891 13.21292969 7.27587891 13.21292969 7.62109375 14.1953125 C9.9054775 22.23004155 9.09804809 30.98177342 8.9375 39.25 C8.2775 39.25 7.6175 39.25 6.9375 39.25 C6.855 40.466875 6.7725 41.68375 6.6875 42.9375 C5.54364656 53.04153872 1.88007832 62.43117221 -3.0625 71.25 C-3.51496094 72.05953125 -3.96742188 72.8690625 -4.43359375 73.703125 C-10.50522187 84.16804502 -17.76380812 93.46746212 -26.0625 102.25 C-26.70960938 102.94996094 -27.35671875 103.64992188 -28.0234375 104.37109375 C-33.13154881 109.71897355 -38.80871699 114.29137641 -45.0625 118.25 C-45.7225 118.25 -46.3825 118.25 -47.0625 118.25 C-47.0625 118.91 -47.0625 119.57 -47.0625 120.25 C-49.97032674 121.70391337 -52.87852516 123.15698455 -55.7890625 124.60546875 C-57.70921384 125.57012712 -59.62365202 126.54660892 -61.5234375 127.55078125 C-66.71637132 130.27131143 -72.02436164 132.48679981 -77.5 134.5625 C-78.19899414 134.82933594 -78.89798828 135.09617187 -79.61816406 135.37109375 C-82.57053465 136.46509748 -84.88798792 137.25 -88.0625 137.25 C-86.02442707 130.1321847 -83.65905258 123.18292719 -81.0625 116.25 C-80.4025 116.25 -79.7425 116.25 -79.0625 116.25 C-78.94519531 115.27546875 -78.82789063 114.3009375 -78.70703125 113.296875 C-78.08113146 108.92544177 -76.92633661 104.75018991 -75.75 100.5 C-66.80560724 66.97312098 -65.50007576 33.77980423 -65.0625 -0.75 C-64.33804688 -0.94335938 -63.61359375 -1.13671875 -62.8671875 -1.3359375 C-56.77973037 -2.97245828 -56.77973037 -2.97245828 -50.76953125 -4.8671875 C-34.68539809 -10.11251808 -13.91521781 -10.53202532 0 0 Z " fill="#FCFCFB" transform="translate(772.0625,578.75)"/>
<path d="M0 0 C-0.2165625 0.59683594 -0.433125 1.19367188 -0.65625 1.80859375 C-4.43007982 13.56686908 -4.84093497 27.47309447 0 39 C1.79270189 42.4792937 3.85447741 45.72903588 6 49 C12.64551329 59.30809732 17.17139856 66.73217645 17.375 79.125 C17.38917969 79.79442627 17.40335937 80.46385254 17.41796875 81.15356445 C17.36841944 86.17476768 16.16942974 89.58079127 14 94 C5.49235558 94.73979517 -1.05590991 91.90765477 -7.57543945 86.44506836 C-18.63750171 76.57513633 -26.20302743 63.73027379 -27.41015625 48.77734375 C-28.09244551 34.8071666 -25.66406082 20.67814972 -16.05859375 10.01953125 C-5.84526112 0 -5.84526112 0 0 0 Z " fill="#60462E" transform="translate(480,163)"/>
<path d="M0 0 C7.625 0.875 7.625 0.875 11 2 C11 2.66 11 3.32 11 4 C11.57234375 4.10441406 12.1446875 4.20882812 12.734375 4.31640625 C20.9479734 6.79464715 27.46351737 15.11812499 32 22 C36.67488961 31.16944224 38.33815076 40.24874147 38.25 50.4375 C38.26160156 51.77264648 38.26160156 51.77264648 38.2734375 53.13476562 C38.25617574 59.04260468 37.46722458 64.27665969 36 70 C35.34 70 34.68 70 34 70 C33.896875 70.70125 33.79375 71.4025 33.6875 72.125 C31.44967361 81.4831831 24.95793703 88.04605244 17 93 C16.34 93 15.68 93 15 93 C15.144375 92.47535156 15.28875 91.95070313 15.4375 91.41015625 C18.12404631 80.1975567 19.05890086 67.85230677 13.51171875 57.44140625 C11.47605537 54.15383619 9.39209889 50.91896898 7.13671875 47.77734375 C6 46 6 46 6 44 C5.34 44 4.68 44 4 44 C3.01888025 41.8967433 2.04016866 39.79236311 1.0625 37.6875 C0.51722656 36.51574219 -0.02804687 35.34398437 -0.58984375 34.13671875 C-2.99759905 28.78096389 -3.21462521 24.6410904 -3.25 18.875 C-3.270625 18.05773437 -3.29125 17.24046875 -3.3125 16.3984375 C-3.35032572 10.42197417 -2.21280093 5.542015 0 0 Z " fill="#60442D" transform="translate(489,161)"/>
<path d="M0 0 C3.3 0 6.6 0 10 0 C9.51853516 1.69382813 9.51853516 1.69382813 9.02734375 3.421875 C7.87741453 8.05418508 7.57752248 12.48884424 7.5625 17.25 C7.55935791 18.07830322 7.55621582 18.90660645 7.55297852 19.76000977 C7.69372178 27.02985893 9.72333989 32.5433681 13 39 C13.66015625 41.31640625 13.66015625 41.31640625 14 43 C14.66 43 15.32 43 16 43 C25.81091693 55.35920704 29.62223513 66.44111604 28 82 C27.28330689 85.47698544 26.35400735 88.71975601 25 92 C25.66 92.33 26.32 92.66 27 93 C21.06 93.99 21.06 93.99 15 95 C15.32097656 94.00226563 15.64195312 93.00453125 15.97265625 91.9765625 C19.19403783 80.61470115 17.40079035 69.30495631 12 59 C9.82895047 55.27509224 7.5030216 51.66300025 5.0859375 48.09375 C-3.04279781 36.0376482 -5.08870287 22.75561938 -2.3203125 8.5 C-1.62655489 5.9628293 -0.8558073 3.48591645 0 1 C0 0.67 0 0.34 0 0 Z " fill="#EBD7B8" transform="translate(479,162)"/>
<path d="M0 0 C0.33 0 0.66 0 1 0 C1.02888514 3.14581423 1.04675923 6.29159469 1.0625 9.4375 C1.07087891 10.33533203 1.07925781 11.23316406 1.08789062 12.15820312 C1.09111328 13.01220703 1.09433594 13.86621094 1.09765625 14.74609375 C1.10289307 15.53685303 1.10812988 16.3276123 1.11352539 17.14233398 C1 19 1 19 0 20 C-0.29430772 21.33630117 -0.53661833 22.68419222 -0.75390625 24.03515625 C-0.88603516 24.84404297 -1.01816406 25.65292969 -1.15429688 26.48632812 C-1.28900391 27.33646484 -1.42371094 28.18660156 -1.5625 29.0625 C-1.70107422 29.91650391 -1.83964844 30.77050781 -1.98242188 31.65039062 C-2.32523005 33.76634451 -2.66307616 35.88310118 -3 38 C-3.33 38 -3.66 38 -4 38 C-3.34144551 29.39070044 -2.45108389 20.82424072 -1.4375 12.25 C-1.29892578 11.0640625 -1.16035156 9.878125 -1.01757812 8.65625 C-0.68014583 5.7706221 -0.34092767 2.88521665 0 0 Z " fill="#E4DED8" transform="translate(1023,535)"/>
<path d="M0 0 C3.39612414 0.1395053 6.79181458 0.28772322 10.1875 0.4375 C11.14720703 0.47681641 12.10691406 0.51613281 13.09570312 0.55664062 C14.02705078 0.59853516 14.95839844 0.64042969 15.91796875 0.68359375 C16.77156982 0.72025146 17.6251709 0.75690918 18.50463867 0.79467773 C21.06454594 1.00531094 23.49333243 1.44841536 26 2 C26 2.33 26 2.66 26 3 C18.08 3 10.16 3 2 3 C2 2.34 2 1.68 2 1 C1.34 0.67 0.68 0.34 0 0 Z " fill="#907B68" transform="translate(563,438)"/>
<path d="M0 0 C7.67028737 0.62915097 15.33667323 1.29099142 23 2 C23 2.33 23 2.66 23 3 C20.10391407 3.05413245 17.20884805 3.09373641 14.3125 3.125 C13.08756836 3.15013672 13.08756836 3.15013672 11.83789062 3.17578125 C7.42907071 3.2114802 4.01268424 3.07580814 0 1 C0 0.67 0 0.34 0 0 Z " fill="#E1DBD7" transform="translate(467,1021)"/>
<path d="M0 0 C0.66 0.33 1.32 0.66 2 1 C1.67 1.66 1.34 2.32 1 3 C0.34 3 -0.32 3 -1 3 C-1.20625 3.556875 -1.4125 4.11375 -1.625 4.6875 C-3.55000774 7.92501302 -6.03850902 9.68231141 -9 12 C-9 9 -9 9 -6.75 6.4375 C-4.48202476 4.42724922 -2.76810859 3.12774794 0 2 C0 1.34 0 0.68 0 0 Z " fill="#DAC8AD" transform="translate(465,413)"/>
<path d="M0 0 C1 4 1 4 0 7 C2.64 6.67 5.28 6.34 8 6 C4.87740563 9.12259437 1.28533288 9.14293342 -3 10 C-2.01 6.7 -1.02 3.4 0 0 Z " fill="#C6B9AE" transform="translate(687,706)"/>
<path d="M0 0 C0.66 0.33 1.32 0.66 2 1 C-1.3 4.3 -4.6 7.6 -8 11 C-8.66 10.67 -9.32 10.34 -10 10 C-8.90033225 8.70450101 -7.79508199 7.41373929 -6.6875 6.125 C-6.07261719 5.40570313 -5.45773437 4.68640625 -4.82421875 3.9453125 C-3 2 -3 2 0 0 Z " fill="#DBD7D4" transform="translate(498,434)"/>
<path d="M0 0 C0 0.66 0 1.32 0 2 C-3.86723631 3.26582219 -7.73151262 3.1118765 -11.75 3.0625 C-12.44738281 3.05798828 -13.14476562 3.05347656 -13.86328125 3.04882812 C-15.57555803 3.0371002 -17.28779033 3.01916653 -19 3 C-19 2.67 -19 2.34 -19 2 C-16.95928485 1.66089006 -14.91737379 1.32897296 -12.875 1 C-11.73804688 0.814375 -10.60109375 0.62875 -9.4296875 0.4375 C-6.23862398 0.03043951 -3.21182209 -0.07809902 0 0 Z " fill="#917A6A" transform="translate(365,440)"/>
<path d="M0 0 C0.93423645 3.01031744 1.04449911 3.86650268 0 7 C-0.66 7 -1.32 7 -2 7 C-2.33 10.3 -2.66 13.6 -3 17 C-3.33 17 -3.66 17 -4 17 C-4.05437607 15.41705218 -4.09296271 13.83355744 -4.125 12.25 C-4.14820313 11.36828125 -4.17140625 10.4865625 -4.1953125 9.578125 C-3.99139502 6.8864142 -3.36551721 5.30095026 -2 3 C-1.34 3 -0.68 3 0 3 C0 2.01 0 1.02 0 0 Z " fill="#8A7461" transform="translate(47,371)"/>
<path d="M0 0 C0.66 0 1.32 0 2 0 C2 1.65 2 3.3 2 5 C0.02 5.66 -1.96 6.32 -4 7 C-3.67 5.68 -3.34 4.36 -3 3 C-2.34 3 -1.68 3 -1 3 C-0.67 2.01 -0.34 1.02 0 0 Z " fill="#DEC9AE" transform="translate(396,240)"/>
<path d="M0 0 C-3 2 -3 2 -6.4375 2.9375 C-9.69116333 3.90789082 -11.49282766 4.79368834 -14 7 C-13.4375 4.625 -13.4375 4.625 -12 2 C-7.94324817 0.39260777 -4.35065901 -0.2636763 0 0 Z " fill="#D9D2C9" transform="translate(679,746)"/>
<path d="M0 0 C-5.445 2.475 -5.445 2.475 -11 5 C-11.66 4.34 -12.32 3.68 -13 3 C-11.21189234 2.30329584 -9.41937948 1.61788811 -7.625 0.9375 C-6.62726562 0.55464844 -5.62953125 0.17179688 -4.6015625 -0.22265625 C-2 -1 -2 -1 0 0 Z " fill="#8B7667" transform="translate(695,962)"/>
<path d="M0 0 C0.66 0.33 1.32 0.66 2 1 C0.44499019 4.81684226 -2.03595495 7.19195732 -5 10 C-3.66511872 6.40608886 -2.03977277 3.24509304 0 0 Z " fill="#948473" transform="translate(515,447)"/>
<path d="M0 0 C0.33 0 0.66 0 1 0 C1 3.96 1 7.92 1 12 C0.01 12.33 -0.98 12.66 -2 13 C-1.34 8.71 -0.68 4.42 0 0 Z " fill="#876B51" transform="translate(678,645)"/>
<path d="M0 0 C-0.66 0 -1.32 0 -2 0 C-2 0.66 -2 1.32 -2 2 C-5.96 2 -9.92 2 -14 2 C-9.67824205 -0.88117196 -4.98826624 -1.79577585 0 0 Z " fill="#948070" transform="translate(333,446)"/>
<path d="M0 0 C0.99 0.33 1.98 0.66 3 1 C3 4.3 3 7.6 3 11 C0.43383368 7.15075052 0.44902324 4.5650696 0 0 Z " fill="#998676" transform="translate(975,368)"/>
<path d="M0 0 C0.33 0.66 0.66 1.32 1 2 C0.06553465 4.03144641 -0.93224776 6.03533587 -2 8 C-2.66 7.34 -3.32 6.68 -4 6 C-2.25 1.125 -2.25 1.125 0 0 Z " fill="#715643" transform="translate(993,680)"/>
<path d="M0 0 C0.33 0 0.66 0 1 0 C2.19876651 5.44893869 1.91360308 8.22169095 -1 13 C-2.07310858 9.72814447 -1.89263102 7.57052408 -1.0625 4.25 C-0.86785156 3.45078125 -0.67320312 2.6515625 -0.47265625 1.828125 C-0.31667969 1.22484375 -0.16070313 0.6215625 0 0 Z " fill="#887362" transform="translate(779,618)"/>
<path d="M0 0 C0.33 0.66 0.66 1.32 1 2 C3.02463255 2.65213292 3.02463255 2.65213292 5 3 C1.25 6 1.25 6 -1 6 C-0.67 4.02 -0.34 2.04 0 0 Z " fill="#7D654B" transform="translate(505,248)"/>
<path d="M0 0 C1.32 0 2.64 0 4 0 C3.34 2.64 2.68 5.28 2 8 C1.67 8 1.34 8 1 8 C1 6.02 1 4.04 1 2 C0.34 1.67 -0.32 1.34 -1 1 C-0.67 0.67 -0.34 0.34 0 0 Z " fill="#79614D" transform="translate(476,163)"/>
</svg>
